<svg width="126" height="120" viewBox="0 0 126 120" fill="none" xmlns="http://www.w3.org/2000/svg">
<g clip-path="url(#clip0_572_1000)">
<path d="M126 0L0 0L0 120L126 120L126 0Z" fill="white"/>
<path d="M113.128 70.8323C118.578 95.0178 98.9917 108.714 65.4871 105.082C41.0408 102.433 12.7752 98.801 11.9839 74.1885C11.2773 52.2119 35.3496 32.668 56.0718 27.7905C82.6019 21.5462 107.68 46.6499 113.128 70.8323Z" fill="#BFEFFF"/>
<mask id="mask0_572_1000" style="mask-type:luminance" maskUnits="userSpaceOnUse" x="11" y="26" width="104" height="80">
<path d="M113.128 70.8323C118.578 95.0178 98.9917 108.714 65.4871 105.082C41.0408 102.433 12.7752 98.801 11.9839 74.1885C11.2773 52.2119 35.3496 32.668 56.0718 27.7905C82.6019 21.5462 107.68 46.6499 113.128 70.8323Z" fill="white"/>
</mask>
<g mask="url(#mask0_572_1000)">
<path d="M117.827 75.2706L116.018 89.4373H58.582V78.0798C59.5623 77.9259 60.5552 77.7656 61.5582 77.5986C90.8582 72.6862 109.791 74.1411 117.827 75.2706Z" fill="#6CBED9"/>
<path d="M115.735 83.5671V105.903H10.1953L10.1953 67.6203C18.3248 67.2927 37.3206 67.725 65.8142 75.5113C88.1591 81.6154 105.237 83.2662 115.735 83.5671Z" fill="#90D8F0"/>
</g>
<path d="M108.848 70.8699C107.638 69.2852 106.251 68.2916 105.064 67.8394C103.872 67.386 102.867 67.4717 102.329 67.998C101.789 68.5253 101.64 69.403 101.853 70.4928C102.368 73.1465 104.371 75.4683 105.761 77.7596C107.176 80.0924 108.491 82.4748 109.768 84.878C111.085 87.4016 111.9 88.9582 112.14 89.256L112.141 89.2731C112.142 89.2707 112.145 89.2671 112.146 89.2647C112.148 89.2671 112.151 89.2709 112.152 89.2731L112.152 89.256C112.247 89.1039 112.535 88.6455 112.837 87.8184C114.93 82.1055 112.412 75.5288 108.848 70.8699Z" fill="#06D6A0"/>
<path d="M103.312 69.0071C105.789 71.7164 107.876 74.7568 109.44 78.028C110.991 81.2984 111.998 84.8332 112.125 88.4308" stroke="black" stroke-width="0.5" stroke-miterlimit="10" stroke-linecap="round" stroke-linejoin="round"/>
<path d="M105.987 68.9456C106.04 70.0517 106.038 71.1608 105.983 72.2669C104.912 71.9432 103.824 71.6638 102.725 71.4375" stroke="black" stroke-width="0.5" stroke-miterlimit="10" stroke-linecap="round" stroke-linejoin="round"/>
<path d="M108.457 72.4199C108.389 73.4572 108.276 74.4923 108.116 75.5205C107.145 75.1214 106.156 74.7616 105.152 74.4438" stroke="black" stroke-width="0.5" stroke-miterlimit="10" stroke-linecap="round" stroke-linejoin="round"/>
<path d="M110.52 76.1211C110.351 77.0799 110.129 78.0305 109.871 78.9711C109.011 78.5065 108.132 78.0701 107.23 77.6818" stroke="black" stroke-width="0.5" stroke-miterlimit="10" stroke-linecap="round" stroke-linejoin="round"/>
<path d="M112.128 80.033C111.856 80.9015 111.539 81.7586 111.178 82.5976C110.445 82.0686 109.685 81.5728 108.9 81.1158" stroke="black" stroke-width="0.5" stroke-miterlimit="10" stroke-linecap="round" stroke-linejoin="round"/>
<path d="M113.182 84.1255C112.821 84.8892 112.412 85.6444 111.954 86.3587C111.37 85.7752 110.732 85.2247 110.074 84.7161" stroke="black" stroke-width="0.5" stroke-miterlimit="10" stroke-linecap="round" stroke-linejoin="round"/>
<path d="M119.187 76.64C119.907 75.4991 120.316 74.4402 120.443 73.4982C120.569 72.5591 120.407 71.7447 119.925 71.1702C119.445 70.5951 118.496 70.3875 117.371 70.7005C113.727 71.7037 111.704 76.2196 110.891 79.4106C110.173 82.2318 110.2 85.3643 111.452 88.0479C111.777 88.7427 112.04 89.1296 112.14 89.2585L112.14 89.2729C112.141 89.271 112.144 89.2679 112.146 89.2657C112.147 89.2679 112.15 89.271 112.151 89.2729L112.152 89.2585C112.262 89.1308 112.556 88.7415 112.933 88.1065C115.163 84.3555 116.864 80.3485 119.187 76.64Z" fill="#06D6A0"/>
<path d="M119.037 71.9709C117.925 73.0629 116.946 74.2757 116.108 75.5697C115.27 76.8645 114.567 78.2345 113.975 79.6469C112.841 82.4909 112.248 85.5218 112.174 88.5605" stroke="black" stroke-width="0.5" stroke-miterlimit="10" stroke-linecap="round" stroke-linejoin="round"/>
<path d="M119.709 74.2251C118.701 74.3194 117.706 74.4644 116.719 74.6816C116.579 73.6748 116.525 72.6661 116.518 71.6511" stroke="black" stroke-width="0.5" stroke-miterlimit="10" stroke-linecap="round" stroke-linejoin="round"/>
<path d="M117.709 76.6559C116.792 76.8891 115.875 77.1397 114.994 77.4793C114.711 76.568 114.53 75.6308 114.363 74.6948" stroke="black" stroke-width="0.5" stroke-miterlimit="10" stroke-linecap="round" stroke-linejoin="round"/>
<path d="M116.091 79.3738C115.262 79.7002 114.464 80.0647 113.674 80.4684C113.313 79.6483 112.998 78.8232 112.723 77.9729" stroke="black" stroke-width="0.5" stroke-miterlimit="10" stroke-linecap="round" stroke-linejoin="round"/>
<path d="M114.861 82.2976C114.143 82.7001 113.429 83.1151 112.765 83.5944C112.314 82.8933 111.935 82.1522 111.568 81.4082" stroke="black" stroke-width="0.5" stroke-miterlimit="10" stroke-linecap="round" stroke-linejoin="round"/>
<path d="M114.031 85.3737C113.429 85.8345 112.84 86.3119 112.266 86.8036C111.792 86.1919 111.335 85.5674 110.896 84.9321" stroke="black" stroke-width="0.5" stroke-miterlimit="10" stroke-linecap="round" stroke-linejoin="round"/>
<path d="M112.124 75.9536C111.569 77.1337 111.163 78.3459 110.891 79.4106C110.173 82.2318 110.2 85.3643 111.452 88.0479" stroke="black" stroke-width="0.5" stroke-miterlimit="10" stroke-linecap="round" stroke-linejoin="round"/>
<path d="M99.9013 52.5275H79.4414C79.8723 51.5819 80.8602 50.9219 82.0118 50.9219C82.2739 50.9219 82.5259 50.9579 82.7678 51.0227C83.1231 49.7555 84.3327 48.8219 85.7767 48.8219C86.4848 48.8219 87.135 49.0499 87.6591 49.4291C88.4176 48.1355 89.8666 47.2595 91.5349 47.2595C93.7474 47.2595 95.5795 48.8051 95.9121 50.8259C96.2952 50.6387 96.7286 50.5331 97.1872 50.5331C98.4926 50.5331 99.5888 51.3803 99.9013 52.5275Z" fill="white"/>
<path d="M62.8398 45.8434H29.8555C30.5888 44.4442 32.1083 43.4818 33.8648 43.4818C34.1672 43.4818 34.462 43.5106 34.7468 43.5658C35.344 42.5386 36.4957 41.8426 37.8161 41.8426C38.2521 41.8426 38.6704 41.9218 39.056 42.061C40.0111 39.409 42.6495 37.501 45.7592 37.501C48.632 37.501 51.1066 39.133 52.2179 41.4754C52.8278 40.9834 53.6166 40.6858 54.4809 40.6858C56.4188 40.6858 57.9913 42.1834 57.9913 44.029C57.9913 44.0842 57.9837 44.1346 57.9812 44.1874C58.3617 44.0866 58.7624 44.029 59.1757 44.029C60.6902 44.029 62.0308 44.7468 62.8398 45.8434Z" fill="white"/>
<path d="M42.1006 44.7169C41.5137 44.7169 40.9895 44.342 40.8257 43.8051L40.5961 43.0527C40.5417 42.8739 40.6496 42.6867 40.8376 42.6346C41.0255 42.5825 41.2219 42.6855 41.2765 42.8645L41.5061 43.6169C41.5825 43.8675 41.8272 44.0422 42.1008 44.0422C42.2964 44.0422 42.4549 44.1932 42.4549 44.3794C42.4546 44.5659 42.2961 44.7169 42.1006 44.7169Z" fill="black"/>
<path d="M45.165 48.776C44.8906 48.776 44.6447 48.5927 44.5875 48.3267L43.9101 45.1847C43.8796 45.044 43.748 44.9418 43.5973 44.9418H42.099C41.7729 44.9418 41.6504 44.69 41.6504 44.3797C41.6504 44.0691 41.7731 43.8176 42.099 43.8176H43.5973C44.306 43.8176 44.9239 44.2974 45.0665 44.9586L45.7439 48.1009C45.8094 48.405 45.6038 48.7023 45.2845 48.7645C45.2444 48.7724 45.2046 48.776 45.165 48.776Z" fill="#118AB2"/>
<path d="M42.0999 44.7169H39.96C39.373 44.7169 38.8489 44.342 38.6851 43.8051L38.4555 43.0527C38.4011 42.8739 38.5089 42.6867 38.6969 42.6346C38.8849 42.5825 39.0812 42.6855 39.1359 42.8645L39.3655 43.6169C39.4418 43.8675 39.6865 44.0422 39.9602 44.0422H42.1002C42.2957 44.0422 42.4542 44.1932 42.4542 44.3794C42.454 44.5659 42.2955 44.7169 42.0999 44.7169Z" fill="#118AB2"/>
<path d="M45.4869 44.7168H44.4139C44.2183 44.7168 44.1465 44.5658 44.1465 44.3796C44.1465 44.1934 44.2183 44.0424 44.4139 44.0424H45.4869C46.3888 44.0424 47.1947 43.4662 47.4464 42.6413L47.5891 42.1738C47.6435 41.995 47.8403 41.892 48.028 41.9438C48.216 41.9959 48.3239 42.1831 48.2692 42.3619L48.1266 42.8294C47.7876 43.9406 46.702 44.7168 45.4869 44.7168Z" fill="#118AB2"/>
<path d="M44.2828 44.0725C44.185 44.1255 44.1465 44.2431 44.1465 44.3797C44.1465 44.5659 44.2183 44.7169 44.4139 44.7169H44.9995" stroke="black" stroke-width="0.75" stroke-miterlimit="10" stroke-linecap="round" stroke-linejoin="round"/>
<path d="M52.708 41.5239C52.5694 40.6949 51.9691 40.0363 51.1854 39.8386C48.9434 39.2729 46.5252 39.2859 44.8383 39.4054C43.4402 39.5045 42.0355 39.5002 40.6422 39.3528C39.1176 39.1915 36.9736 39.1104 35.1 39.5741C34.6368 39.6886 34.3047 40.1098 34.3047 40.6039V41.089C34.3047 41.5714 34.4362 42.0492 34.7018 42.4599C35.8744 44.2719 38.186 43.9949 40.7776 43.3059C42.8742 42.7486 44.6369 42.5268 46.6429 42.5095C48.1796 42.4963 51.5385 42.7844 51.5385 42.7844C52.231 42.8624 52.8269 42.2367 52.708 41.5239Z" fill="#073D4F"/>
<path d="M35.332 39.7301C39.2406 42.6379 41.4534 39.7377 48.111 39.4802" stroke="black" stroke-width="0.75" stroke-miterlimit="10" stroke-linecap="round" stroke-linejoin="round"/>
<path d="M47.1857 52.7443L37.0432 80.0831C36.9013 80.4652 36.4614 80.6654 36.0604 80.5305C35.6663 80.3978 35.4566 79.9898 35.5841 79.6132L44.9492 52.024C45.1498 51.4331 45.8153 51.1089 46.4358 51.2999C47.0562 51.491 47.3966 52.1248 47.1961 52.7157C47.193 52.7234 47.1885 52.7363 47.1857 52.7443Z" fill="#EF476F"/>
<path d="M87.0971 85.5773L82.6637 72.7263L80.4468 66.3007C80.1552 65.4557 79.9174 64.6507 79.182 64.0491L76.4934 61.8564C75.81 61.2994 75.7304 60.3199 76.3153 59.6693C76.9002 59.0184 77.9286 58.9423 78.6117 59.4996C78.6266 59.5116 78.6463 59.5284 78.6604 59.5409L81.2714 61.8482C81.8487 62.3587 82.3189 62.9746 82.6553 63.648C82.9482 64.2245 83.1072 64.8567 83.2899 65.4706L85.2361 71.975L89.1285 84.984C89.2892 85.5216 88.9621 86.0815 88.3977 86.2347C87.8478 86.3839 87.2748 86.0897 87.0971 85.5773Z" fill="#EF476F"/>
<path d="M33.3521 99.8364C33.3032 99.8364 33.2637 99.7987 33.2637 99.7522V61.5986C33.2637 61.5521 33.3032 61.5144 33.3521 61.5144C33.401 61.5144 33.4406 61.5521 33.4406 61.5986V99.7522C33.4406 99.7987 33.401 99.8364 33.3521 99.8364Z" fill="#118AB2"/>
<path d="M33.3521 99.8364C33.3032 99.8364 33.2637 99.7987 33.2637 99.7522V61.5986C33.2637 61.5521 33.3032 61.5144 33.3521 61.5144C33.401 61.5144 33.4406 61.5521 33.4406 61.5986V99.7522C33.4406 99.7987 33.401 99.8364 33.3521 99.8364Z" fill="#118AB2"/>
<path d="M39.6593 98.0489C39.6228 98.0489 39.5885 98.027 39.5757 97.9922L26.96 63.4135C26.9439 63.3696 26.9684 63.3216 27.0145 63.3062C27.0601 63.2909 27.111 63.3142 27.1271 63.3581L39.7427 97.9368C39.7589 97.9807 39.7344 98.0287 39.6883 98.0441C39.6787 98.0474 39.6692 98.0489 39.6593 98.0489Z" fill="#118AB2"/>
<path d="M44.7857 93.0222C44.7613 93.0222 44.7371 93.0126 44.7195 92.9938L21.8525 68.469C21.82 68.4342 21.8232 68.3809 21.8598 68.3499C21.8963 68.3192 21.9525 68.3226 21.9848 68.3569L44.852 92.8815C44.8845 92.9163 44.8812 92.9696 44.8447 93.0006C44.8276 93.0152 44.8066 93.0222 44.7857 93.0222Z" fill="#118AB2"/>
<path d="M47.7693 85.697C47.7595 85.697 47.7494 85.6953 47.7393 85.6919L19.8692 76.1471C19.823 76.1315 19.7994 76.0833 19.8157 76.0394C19.8324 75.9955 19.8825 75.9722 19.9291 75.9887L47.7993 85.5336C47.8454 85.5492 47.8691 85.5974 47.8527 85.6413C47.8396 85.6756 47.8056 85.697 47.7693 85.697Z" fill="#118AB2"/>
<path d="M19.6548 83.8467C19.6147 83.8467 19.5784 83.8206 19.5688 83.7817C19.5575 83.7366 19.587 83.691 19.6346 83.6802L48.0307 77.2806C48.0781 77.27 48.126 77.2978 48.1373 77.3434C48.1487 77.3888 48.1192 77.4342 48.0715 77.445L19.6754 83.8443C19.6684 83.846 19.6616 83.8467 19.6548 83.8467Z" fill="#118AB2"/>
<path d="M21.1256 91.7013C21.1022 91.7013 21.0785 91.6922 21.0611 91.6747C21.0276 91.6406 21.0294 91.5873 21.0652 91.5554L45.5177 69.6715C45.5533 69.6398 45.6095 69.6412 45.643 69.6753C45.6765 69.7094 45.6747 69.7627 45.6389 69.7946L21.1864 91.6785C21.1692 91.6936 21.1476 91.7013 21.1256 91.7013Z" fill="#118AB2"/>
<path d="M25.8892 97.2804C25.8774 97.2804 25.8655 97.2782 25.8542 97.2737C25.8093 97.2552 25.7887 97.2055 25.8081 97.1628L40.7335 64.1208C40.7527 64.0778 40.8048 64.0579 40.85 64.0766C40.8948 64.0949 40.9155 64.1445 40.8961 64.1873L25.9706 97.2295C25.956 97.2612 25.9232 97.2804 25.8892 97.2804Z" fill="#118AB2"/>
<path d="M33.3486 76.4131C31.4044 76.4131 29.8281 78.3194 29.8281 80.6712C29.8281 83.0229 31.4041 84.929 33.3486 84.929C35.293 84.929 36.869 83.0227 36.869 80.6712C36.869 78.3196 35.293 76.4131 33.3486 76.4131Z" fill="#118AB2"/>
<path d="M33.1544 84.0018C31.7737 84.0018 30.6074 82.4763 30.6074 80.671C30.6074 78.8655 31.7737 77.3403 33.1544 77.3403C34.5351 77.3403 35.7014 78.8658 35.7014 80.671C35.7014 82.4766 34.5348 84.0018 33.1544 84.0018Z" stroke="black" stroke-width="0.75" stroke-miterlimit="10" stroke-linecap="round" stroke-linejoin="round"/>
<path d="M49.9402 80.9631C49.9197 83.2834 49.6642 85.61 49.0849 87.8816C48.5083 90.1515 47.6263 92.3672 46.389 94.4309C45.1476 96.4865 43.5137 98.3921 41.4208 99.8633C40.3735 100.591 39.216 101.217 37.9528 101.627C36.695 102.044 35.3499 102.263 34.0105 102.25C32.6709 102.228 31.339 101.976 30.105 101.531C28.8654 101.092 27.7405 100.444 26.73 99.6999C24.7059 98.1984 23.175 96.2746 21.9959 94.2363C20.8132 92.1912 20.0031 89.9972 19.457 87.7647C18.9021 85.531 18.6657 83.2431 18.6602 80.9633C18.6657 78.6835 18.9023 76.3956 19.457 74.1619C20.0031 71.9295 20.8132 69.7354 21.9959 67.6903C23.1747 65.6518 24.7056 63.7282 26.73 62.2268C27.7407 61.4825 28.8654 60.8343 30.105 60.3955C31.339 59.9511 32.6709 59.6981 34.0105 59.6763C35.3499 59.664 36.695 59.8829 37.9528 60.2993C39.216 60.7099 40.3735 61.3354 41.4208 62.0633C43.5137 63.5345 45.1476 65.4399 46.389 67.4957C47.6263 69.5595 48.5083 71.7754 49.0849 74.0451C49.664 76.3162 49.9197 78.643 49.9402 80.9631ZM46.1622 80.9631C46.1569 78.9075 45.9452 76.8495 45.4508 74.8615C44.9667 72.8746 44.2505 70.9402 43.237 69.1831C42.23 67.4299 40.9425 65.8337 39.3632 64.657C38.5755 64.0728 37.7252 63.5794 36.8198 63.2566C35.9169 62.9283 34.9704 62.7447 34.0102 62.7216C33.0504 62.7106 32.0905 62.8601 31.1639 63.1603C30.235 63.4546 29.352 63.9257 28.5277 64.4933C26.8796 65.6398 25.4894 67.2176 24.4196 68.988C23.3511 70.7638 22.5636 72.7198 22.0488 74.7442C21.5302 76.77 21.2991 78.8667 21.2792 80.9628C21.2991 83.059 21.5302 85.1556 22.0488 87.1815C22.5636 89.2056 23.3511 91.1619 24.4196 92.9376C25.4891 94.7081 26.8796 96.2859 28.5277 97.4323C29.352 98.0002 30.235 98.4711 31.1639 98.7653C32.0905 99.0653 33.0504 99.2151 34.0102 99.204C34.9704 99.181 35.9169 98.9974 36.8198 98.6691C37.7252 98.3465 38.5755 97.8528 39.3632 97.2687C40.9425 96.092 42.23 94.4957 43.237 92.7425C44.2505 90.9855 44.9667 89.0511 45.4508 87.0641C45.9452 85.0767 46.1569 83.0187 46.1622 80.9631Z" fill="#073D4F"/>
<path d="M45.9262 80.963C45.9244 78.989 45.7319 77.0112 45.2748 75.0878C44.8217 73.1618 44.1559 71.2771 43.193 69.534C42.2311 67.7959 40.9941 66.1723 39.4002 64.932C38.6041 64.3149 37.7264 63.7862 36.7743 63.4394C35.8218 63.089 34.8004 62.8953 33.7843 62.9028C32.7635 62.9153 31.7467 63.1176 30.7954 63.4754C29.8476 63.8371 28.9623 64.362 28.1625 64.9757C26.5567 66.2097 25.2718 67.8029 24.291 69.5362C23.3067 71.2742 22.5925 73.1486 22.1256 75.0751C21.6568 77.0016 21.4452 78.9845 21.4217 80.9625C21.4454 82.9406 21.6571 84.9235 22.1256 86.85C22.5925 88.7765 23.3067 90.6511 24.291 92.389C25.2718 94.1225 26.5567 95.7156 28.1625 96.9497C28.9626 97.5634 29.8478 98.0882 30.7954 98.4499C31.7467 98.808 32.7635 99.0103 33.7843 99.0226C34.8004 99.03 35.8218 98.8366 36.7743 98.4859C37.7264 98.1391 38.6041 97.6104 39.4002 96.9934C40.9938 95.753 42.2309 94.1294 43.193 92.3913C44.1559 90.6482 44.8217 88.7635 45.2748 86.8375C45.7317 84.9149 45.9242 82.937 45.9262 80.963ZM46.3982 80.963C46.3924 82.9666 46.1933 84.9758 45.7238 86.9354C45.2602 88.8893 44.5788 90.81 43.5899 92.5918C42.6033 94.3651 41.333 96.0317 39.6758 97.3174C38.8503 97.9546 37.9358 98.5049 36.9283 98.8704C35.9281 99.2354 34.8591 99.438 33.7778 99.4282C32.7025 99.413 31.6355 99.1985 30.6396 98.8214C29.6415 98.4374 28.7307 97.8938 27.9024 97.2566C26.2463 95.9786 24.9351 94.3426 23.9367 92.5706C22.937 90.7973 22.2153 88.89 21.745 86.9338C21.2728 84.9742 21.0629 82.9697 21.043 80.9633C21.0629 78.9569 21.2728 76.9522 21.745 74.9928C22.2153 73.0365 22.937 71.129 23.9367 69.3559C24.9351 67.5842 26.2463 65.9482 27.9024 64.6699C28.7307 64.0327 29.6412 63.4889 30.6396 63.1051C31.6355 62.7281 32.7025 62.5135 33.7778 62.4984C34.8589 62.4885 35.9281 62.6911 36.9283 63.0562C37.9358 63.4214 38.8503 63.972 39.6758 64.6092C41.333 65.8946 42.6033 67.5612 43.5899 69.3348C44.5788 71.1165 45.2602 73.0373 45.7238 74.9911C46.1933 76.9505 46.3924 78.9595 46.3982 80.963Z" fill="#118AB2"/>
<path d="M86.024 107.529C85.9751 107.529 85.9355 107.491 85.9355 107.445V64.9883C85.9355 64.9417 85.9751 64.9041 86.024 64.9041C86.0729 64.9041 86.1124 64.9417 86.1124 64.9883V107.445C86.1124 107.491 86.0729 107.529 86.024 107.529Z" fill="#118AB2"/>
<path d="M86.024 107.529C85.9751 107.529 85.9355 107.491 85.9355 107.445V64.9883C85.9355 64.9417 85.9751 64.9041 86.024 64.9041C86.0729 64.9041 86.1124 64.9417 86.1124 64.9883V107.445C86.1124 107.491 86.0729 107.529 86.024 107.529Z" fill="#118AB2"/>
<path d="M93.0448 105.54C93.008 105.54 92.974 105.518 92.9611 105.483L78.9229 67.0047C78.9068 66.9606 78.9313 66.9128 78.9774 66.8975C79.0232 66.8823 79.0739 66.9054 79.09 66.9493L93.1282 105.428C93.1443 105.472 93.1199 105.52 93.0738 105.535C93.0642 105.539 93.0543 105.54 93.0448 105.54Z" fill="#118AB2"/>
<path d="M98.7475 99.9459C98.7231 99.9459 98.6989 99.9363 98.6812 99.9176L73.2353 72.6272C73.2028 72.5921 73.206 72.5391 73.2426 72.5081C73.2791 72.4774 73.3353 72.4808 73.3676 72.5151L98.8138 99.8055C98.8463 99.8403 98.843 99.8936 98.8065 99.9245C98.7896 99.9389 98.7684 99.9459 98.7475 99.9459Z" fill="#118AB2"/>
<path d="M102.067 91.7948C102.057 91.7948 102.047 91.7934 102.037 91.7898L69.9512 80.8014C69.9051 80.7858 69.8814 80.7376 69.8978 80.6936C69.9141 80.6497 69.9643 80.626 70.0112 80.643L102.097 91.6314C102.143 91.647 102.167 91.6952 102.15 91.7392C102.137 91.7735 102.103 91.7948 102.067 91.7948Z" fill="#118AB2"/>
<path d="M69.6684 89.9867C69.6284 89.9867 69.5921 89.9606 69.5825 89.9217C69.5712 89.8763 69.6006 89.831 69.6483 89.8202L102.361 82.4479C102.409 82.4371 102.456 82.4651 102.468 82.5107C102.479 82.5561 102.45 82.6015 102.402 82.6123L69.6891 89.9848C69.682 89.986 69.6752 89.9867 69.6684 89.9867Z" fill="#118AB2"/>
<path d="M72.4206 98.4764C72.3971 98.4764 72.3734 98.4675 72.356 98.4498C72.3225 98.4157 72.3243 98.3624 72.3601 98.3305L99.5703 73.9787C99.6058 73.9472 99.662 73.9487 99.6955 73.9825C99.729 74.0166 99.7273 74.0699 99.6915 74.1018L72.4813 98.4536C72.4642 98.4687 72.4425 98.4764 72.4206 98.4764Z" fill="#118AB2"/>
<path d="M77.7195 104.685C77.7077 104.685 77.6958 104.682 77.6845 104.678C77.6396 104.659 77.6187 104.61 77.6381 104.567L94.2469 67.7988C94.2661 67.756 94.3187 67.7364 94.3631 67.7546C94.408 67.7731 94.4289 67.8228 94.4095 67.8655L77.8006 104.634C77.7865 104.666 77.7538 104.685 77.7195 104.685Z" fill="#118AB2"/>
<path d="M107.269 86.2165C107.25 89.036 106.859 91.8615 106.05 94.5944C105.227 97.3222 103.97 99.9498 102.263 102.328C100.553 104.698 98.3489 106.81 95.687 108.348C94.3554 109.111 92.9115 109.722 91.3977 110.131C89.8849 110.541 88.3044 110.745 86.7324 110.726C85.1604 110.702 83.5933 110.456 82.1057 110.008C80.6169 109.562 79.209 108.919 77.9202 108.131C75.338 106.547 73.262 104.401 71.6346 102.051C70.0009 99.6946 68.8387 97.0966 68.0587 94.4226C67.2848 91.7442 66.9207 88.9762 66.9199 86.2167C66.9207 83.4572 67.2848 80.6895 68.0587 78.0109C68.8389 75.3368 70.0009 72.7388 71.6346 70.3827C73.262 68.0329 75.338 65.8866 77.9202 64.3026C79.209 63.5144 80.6169 62.8712 82.1057 62.425C83.5933 61.9777 85.1604 61.731 86.7324 61.7067C88.3041 61.6882 89.8849 61.8922 91.3977 62.3022C92.9115 62.7109 94.3554 63.3219 95.687 64.0851C98.3489 65.6228 100.553 67.735 102.263 70.1053C103.97 72.4837 105.227 75.111 106.05 77.8388C106.859 80.5714 107.25 83.397 107.269 86.2165ZM102.547 86.2165C102.546 83.7889 102.227 81.3644 101.557 79.0393C100.882 76.7192 99.8818 74.4877 98.5132 72.5082C97.1516 70.532 95.4486 68.7805 93.4283 67.533C91.4133 66.2869 89.1027 65.5599 86.7327 65.5143C84.3636 65.4738 81.9953 66.1184 79.8944 67.3155C77.7945 68.5167 75.9634 70.2344 74.519 72.2307C73.0768 74.2323 71.9819 76.4934 71.2644 78.8672C70.5593 81.2466 70.2133 83.7286 70.1944 86.2165C70.2133 88.7043 70.5593 91.1864 71.2644 93.5658C71.9821 95.9396 73.077 98.2006 74.519 100.202C75.9634 102.199 77.7945 103.916 79.8944 105.117C81.9953 106.315 84.3634 106.959 86.7327 106.919C89.1027 106.873 91.4133 106.146 93.4283 104.9C95.4486 103.652 97.1516 101.901 98.5132 99.9248C99.882 97.9455 100.882 95.7138 101.557 93.3937C102.227 91.0686 102.546 88.6441 102.547 86.2165Z" fill="#073D4F"/>
<path d="M86.0194 81.0479C83.6614 81.0479 81.75 83.3598 81.75 86.2117C81.75 89.0636 83.6614 91.3755 86.0194 91.3755C88.3773 91.3755 90.2888 89.0636 90.2888 86.2117C90.2888 83.3598 88.3773 81.0479 86.0194 81.0479Z" fill="#118AB2"/>
<path d="M85.7841 90.2512C84.1098 90.2512 82.6953 88.4013 82.6953 86.2118C82.6953 84.0223 84.1098 82.1724 85.7841 82.1724C87.4584 82.1724 88.8728 84.0223 88.8728 86.2118C88.8731 88.4016 87.4584 90.2512 85.7841 90.2512Z" stroke="black" stroke-width="0.75" stroke-miterlimit="10" stroke-linecap="round" stroke-linejoin="round"/>
<path d="M102.095 86.2164C102.103 83.8776 101.811 81.5348 101.183 79.2761C100.549 77.0194 99.603 74.8335 98.2845 72.87C96.9676 70.9083 95.3031 69.1368 93.2728 67.8588C91.2522 66.5816 88.8494 65.8332 86.4259 65.8424C84.0002 65.8486 81.5966 66.6056 79.5587 67.8752C77.5104 69.1474 75.787 70.8809 74.4438 72.8384C73.0966 74.8004 72.0879 76.976 71.4314 79.2389C70.7815 81.5072 70.459 83.864 70.4312 86.2167C70.4592 88.5696 70.7818 90.9262 71.4314 93.1944C72.0879 95.4574 73.0966 97.633 74.4438 99.595C75.787 101.552 77.5104 103.286 79.5587 104.558C81.5966 105.828 84.0004 106.585 86.4259 106.591C88.8492 106.6 91.2522 105.852 93.2728 104.575C95.3031 103.297 96.9678 101.525 98.2845 99.5633C99.6033 97.5996 100.549 95.4137 101.183 93.1572C101.811 90.8981 102.103 88.5552 102.095 86.2164ZM102.783 86.2164C102.782 88.609 102.475 91.0056 101.822 93.3207C101.163 95.6302 100.185 97.8696 98.8175 99.8902C97.4552 101.902 95.73 103.731 93.6051 105.058C91.4904 106.384 88.9711 107.162 86.4214 107.143C83.8719 107.127 81.3675 106.325 79.2553 104.999C77.1372 103.672 75.3732 101.881 74.0026 99.8676C72.6309 97.8533 71.6111 95.6314 70.9496 93.3183C70.2964 91.0032 69.9784 88.6119 69.959 86.2164C69.9784 83.821 70.2964 81.4296 70.9496 79.1146C71.6113 76.8015 72.6309 74.5793 74.0026 72.5652C75.3732 70.5526 77.1372 68.761 79.2553 67.4343C81.3675 66.108 83.8719 65.3055 86.4214 65.2896C88.9711 65.2709 91.4904 66.0488 93.6051 67.3748C95.73 68.702 97.4555 70.5305 98.8175 72.5427C100.185 74.5632 101.163 76.8024 101.822 79.1122C102.475 81.4272 102.782 83.8236 102.783 86.2164Z" fill="#118AB2"/>
<path d="M90.9286 37.8591C91.2733 38.0048 91.6181 38.088 91.9628 38.1596C92.3076 38.2256 92.6523 38.2688 92.997 38.2925C93.3418 38.3168 93.6865 38.3201 94.0312 38.2961C94.376 38.2714 94.7207 38.2263 95.0654 38.1176C95.9109 37.8512 96.8229 38.2877 97.1029 39.0927C97.3826 39.8979 96.9242 40.7664 96.0787 41.0331C95.7365 41.1411 95.383 41.1334 95.0654 41.0331C94.7207 40.9244 94.376 40.8792 94.0312 40.8545C93.6865 40.8305 93.3418 40.8336 92.997 40.8581C92.6523 40.8819 92.3076 40.9248 91.9628 40.9911C91.6181 41.0626 91.2733 41.1456 90.9286 41.2916C89.9335 41.7125 88.7685 41.2853 88.3265 40.3376C87.8845 39.3898 88.333 38.2803 89.3282 37.8593C89.8558 37.6359 90.4385 37.6541 90.9286 37.8591Z" fill="#073D4F"/>
<path d="M74.772 48.2624C74.4975 48.2624 74.2518 48.0793 74.1944 47.8134L73.5805 44.9725C73.4331 44.2909 73.8114 43.592 74.4797 43.3105L79.3881 41.2448C79.686 41.1195 80.0347 41.2477 80.1665 41.5319C80.2983 41.8158 80.1635 42.1477 79.8652 42.2732L74.9567 44.3389C74.7931 44.4078 74.7004 44.5789 74.7367 44.7457L75.3506 47.5866C75.4163 47.8907 75.2107 48.188 74.8914 48.2504C74.8514 48.2588 74.8115 48.2624 74.772 48.2624Z" fill="#118AB2"/>
<path d="M79.8778 42.3221C78.5841 42.3223 77.2895 42.1128 76.0495 41.693L72.2244 40.398C71.7135 40.2252 71.1798 40.1373 70.6378 40.1373H66.764C66.4379 40.1373 66.1738 39.8856 66.1738 39.5753C66.1738 39.2647 66.4379 39.0132 66.764 39.0132H70.6378C71.3149 39.0132 71.9817 39.1226 72.62 39.3389L76.4451 40.6339C78.7952 41.4295 81.3652 41.3822 83.681 40.5007L86.5311 39.4157C87.2327 39.1485 87.9716 39.0132 88.7273 39.0132H89.7542C90.0803 39.0132 90.3444 39.2649 90.3444 39.5753C90.3444 39.8858 90.0803 40.1373 89.7542 40.1373H88.7273C88.1225 40.1373 87.5311 40.2456 86.9694 40.4594L84.1193 41.5445C82.7582 42.0624 81.3183 42.3221 79.8778 42.3221Z" fill="#118AB2"/>
<path d="M68.1349 41.2912C67.6238 41.1465 67.1125 41.0601 66.6015 40.9932C66.0904 40.9226 65.5791 40.8828 65.0681 40.858C64.557 40.8343 64.0457 40.829 63.5346 40.8559C63.0236 40.8784 62.5123 40.9245 62.0012 41.033C61.1558 41.2123 60.3179 40.7049 60.1296 39.9C59.9414 39.0948 60.4741 38.2968 61.3193 38.1175C61.5489 38.0688 61.7855 38.0726 62.0012 38.1175C62.5123 38.226 63.0236 38.272 63.5346 38.2946C64.0457 38.3215 64.557 38.3162 65.0681 38.2924C65.5791 38.2677 66.0904 38.2279 66.6015 38.1573C67.1125 38.0904 67.6238 38.004 68.1349 37.8592C69.1301 37.5772 70.1769 38.117 70.473 39.065C70.7691 40.0128 70.2023 41.0097 69.2069 41.2917C68.8428 41.3944 68.4733 41.3877 68.1349 41.2912Z" fill="#073D4F"/>
<path d="M53.0931 86.0934C53.0062 86.0934 52.918 86.0842 52.8298 86.065L33.0863 81.7786C32.4505 81.6404 32.0529 81.038 32.1978 80.4325C32.3427 79.827 32.9752 79.4482 33.6112 79.5862L53.3547 83.8726C53.9905 84.0106 54.3881 84.6133 54.2432 85.2188C54.1182 85.7401 53.6316 86.0934 53.0931 86.0934Z" fill="#EF476F"/>
<path d="M45.9856 47.6353L55.1242 84.5715C55.3873 85.6343 54.6955 86.6992 53.5797 86.9495C52.4638 87.1998 51.3457 86.5412 51.0828 85.4785C51.074 85.4432 51.0655 85.402 51.0587 85.3667L44.175 47.9895C44.0868 47.5105 44.5452 47.4397 45.0482 47.3557C45.5325 47.2746 45.8735 47.1855 45.9856 47.6353Z" fill="#EF476F"/>
<path d="M77.5364 55.1156L54.8204 86.1334C54.1523 87.0464 52.8324 87.2713 51.8738 86.6348C50.9151 85.9962 50.6813 84.7414 51.3496 83.8285C51.3519 83.8239 51.3614 83.8126 51.3637 83.8083L74.5165 52.9434L77.5364 55.1156Z" fill="#EF476F"/>
<path d="M75.3834 49.4465L47.0508 51.6253C46.4627 51.6709 46.3004 52.1554 46.3369 52.7163C46.3734 53.2772 46.821 53.7082 47.4107 53.6842L75.5845 52.5425L75.3834 49.4465Z" fill="#EF476F"/>
<path d="M46.9754 51.6335C46.4416 51.7135 46.3023 52.1798 46.337 52.7159C46.3736 53.2768 46.8211 53.7079 47.4108 53.6839" stroke="black" stroke-width="0.75" stroke-miterlimit="10" stroke-linecap="round" stroke-linejoin="round"/>
<path d="M77.5749 62.2497C76.8179 62.2497 76.1398 61.7443 75.9815 61.1397L72.8706 46.7121C72.6897 45.7439 73.3859 45.6333 74.2669 45.4612C75.1469 45.2891 75.88 45.1199 76.0609 45.9592L79.1719 60.3868C79.3528 61.2259 78.7853 62.0457 77.9043 62.218C77.7939 62.2394 77.6835 62.2497 77.5749 62.2497Z" fill="#EF476F"/>
<path d="M75.4962 58.8893L73.4199 49.2605" stroke="black" stroke-width="0.75" stroke-miterlimit="10" stroke-linecap="round" stroke-linejoin="round"/>
<path d="M82.9512 86.898C82.6354 86.898 82.3736 86.6602 82.3618 86.3571C82.3494 86.0468 82.6034 85.7856 82.9293 85.7741L85.9994 85.6635C86.327 85.652 86.5991 85.8936 86.6115 86.204C86.6238 86.5143 86.3696 86.7754 86.044 86.7869L82.9739 86.8976C82.9663 86.8978 82.9587 86.898 82.9512 86.898Z" fill="#073D4F"/>
<path d="M81.9349 86.6324L77.5425 73.9093L75.3464 67.5476C75.1364 66.9397 74.9074 66.3433 74.8068 65.7078C74.6362 64.6311 74.8431 63.5739 75.2027 62.553L76.0454 60.1734C76.3329 59.3617 77.2568 58.9254 78.1093 59.1992C78.9618 59.473 79.4197 60.3529 79.1321 61.1648C79.1258 61.1826 79.1168 61.2061 79.11 61.2236C78.7133 62.2107 78.2282 63.1935 77.9251 64.2114C77.818 64.5706 77.7862 64.9515 77.8253 65.3271C77.8742 65.8002 78.0536 66.2619 78.1899 66.7174L80.1155 73.1581L83.9668 86.0394C84.1275 86.577 83.8002 87.1369 83.2357 87.29C82.6856 87.4388 82.1128 87.1448 81.9349 86.6324Z" fill="#EF476F"/>
<path d="M78.626 62.3669C78.3655 62.9746 78.1107 63.5861 77.9245 64.2111C77.8174 64.5704 77.7856 64.9513 77.8247 65.3269" stroke="black" stroke-width="0.75" stroke-miterlimit="10" stroke-linecap="round" stroke-linejoin="round"/>
<path d="M33.3494 81.1462C33.3368 81.1462 33.3241 81.1457 33.3115 81.1447L31.4883 81.011C31.2202 80.9914 31.0199 80.7684 31.0405 80.5133C31.0609 80.2582 31.2948 80.0671 31.5632 80.0866L33.3864 80.2202C33.6545 80.2399 33.8549 80.4629 33.8342 80.718C33.8143 80.9614 33.6011 81.1462 33.3494 81.1462Z" fill="#073D4F"/>
<path d="M45.0082 51.8875L30.8344 80.225C30.6558 80.583 30.808 81.0143 31.1814 81.1948C31.561 81.3782 32.0244 81.2337 32.2169 80.8725L46.2498 54.527L45.0082 51.8875Z" fill="#EF476F"/>
<path d="M39.6016 67.0095L46.2503 54.5269" stroke="black" stroke-width="0.75" stroke-miterlimit="10" stroke-linecap="round" stroke-linejoin="round"/>
<path d="M63.9821 87.3771H56.2634C55.9055 87.3771 55.6152 87.1009 55.6152 86.7599V85.7982C55.6152 85.4574 55.9053 85.1809 56.2634 85.1809H63.9821C64.34 85.1809 64.6303 85.4571 64.6303 85.7982V86.7599C64.63 87.1009 64.34 87.3771 63.9821 87.3771Z" fill="#073D4F"/>
<path d="M60.0817 85.2639C60.2752 85.3707 60.4055 85.5699 60.4055 85.7984V86.7601C60.4055 87.0056 60.2551 87.2175 60.0371 87.3169" stroke="black" stroke-width="0.75" stroke-miterlimit="10" stroke-linecap="round" stroke-linejoin="round"/>
<path d="M53.0921 77.759C50.0608 77.759 47.6035 80.988 47.6035 84.9713C47.6035 88.9546 50.0608 92.1835 53.0921 92.1835C56.1234 92.1835 58.5806 88.9546 58.5806 84.9713C58.5806 80.988 56.1231 77.759 53.0921 77.759ZM55.7184 81.222C55.9805 81.5285 56.2103 81.8942 56.3953 82.315C56.5803 82.7357 56.7063 83.1804 56.7773 83.6316C56.8035 83.7984 56.71 83.957 56.5805 83.9674L54.3679 84.1418C54.1928 84.1558 54.0809 83.9009 54.1777 83.7086L55.3989 81.2782C55.4702 81.1358 55.6217 81.1087 55.7184 81.222ZM51.952 80.1238C52.2849 79.9788 52.641 79.9001 53.0107 79.9001C53.3804 79.9001 53.7364 79.9788 54.0693 80.1238C54.1923 80.1773 54.2503 80.363 54.1923 80.5154L53.2012 83.1204C53.1228 83.3266 52.8988 83.3266 52.8204 83.1204L51.8293 80.5154C51.7713 80.3633 51.8291 80.1775 51.952 80.1238ZM49.245 83.633C49.3159 83.1818 49.4421 82.7371 49.6268 82.3164C49.8118 81.8957 50.0416 81.5297 50.3037 81.2234C50.4005 81.1102 50.5519 81.1373 50.6232 81.2794L51.8444 83.7098C51.9412 83.9021 51.829 84.157 51.6542 84.143L49.4416 83.9685C49.3123 83.9587 49.2188 83.8001 49.245 83.633ZM50.3044 88.7208C50.0426 88.4146 49.8125 88.0486 49.6276 87.6278C49.4426 87.2071 49.3166 86.7624 49.2455 86.3112C49.2193 86.1444 49.3128 85.9857 49.4424 85.9754L51.6549 85.801C51.8301 85.787 51.9419 86.0419 51.8452 86.2342L50.624 88.6646C50.5527 88.807 50.4012 88.8338 50.3044 88.7208ZM54.0708 89.8188C53.738 89.9638 53.3819 90.0425 53.0122 90.0425C52.6425 90.0425 52.2864 89.9638 51.9535 89.8188C51.8306 89.7653 51.7726 89.5795 51.8306 89.4271L52.8217 86.8222C52.9001 86.616 53.1241 86.616 53.2024 86.8222L54.1936 89.4271C54.2518 89.5795 54.1938 89.7653 54.0708 89.8188ZM56.3958 87.6262C56.2108 88.0469 55.981 88.4129 55.7189 88.7191C55.6222 88.8324 55.4707 88.8053 55.3994 88.6632L54.1782 86.2327C54.0814 86.0405 54.1936 85.7856 54.3685 85.7995L56.581 85.974C56.7103 85.9843 56.8038 86.143 56.7778 86.3098C56.707 86.761 56.5808 87.2054 56.3958 87.6262Z" fill="#118AB2"/>
<path d="M52.6855 92.1835C55.7169 92.1835 58.1741 88.9546 58.1741 84.9713C58.1741 81.3324 56.1231 78.3228 53.4574 77.8298" stroke="black" stroke-width="0.75" stroke-miterlimit="10" stroke-linecap="round" stroke-linejoin="round"/>
<path d="M56.4001 93.4538H48.6813C48.3235 93.4538 48.0332 93.1776 48.0332 92.8365V91.8749C48.0332 91.5341 48.3233 91.2576 48.6813 91.2576H56.4001C56.7579 91.2576 57.0483 91.5338 57.0483 91.8749V92.8365C57.048 93.1776 56.7579 93.4538 56.4001 93.4538Z" fill="#073D4F"/>
<path d="M52.4997 91.3403C52.6932 91.4471 52.8235 91.6466 52.8235 91.8748V92.8365C52.8235 93.1077 52.64 93.3379 52.3848 93.4209" stroke="black" stroke-width="0.75" stroke-miterlimit="10" stroke-linecap="round" stroke-linejoin="round"/>
<path d="M56.2452 92.9421C56.062 92.9421 55.8879 92.8401 55.811 92.6694L52.4231 85.1464C52.3203 84.9182 52.4312 84.6539 52.6709 84.556C52.9108 84.4583 53.1882 84.5635 53.291 84.7922L56.6789 92.3152C56.7817 92.5435 56.6709 92.8077 56.4312 92.9056C56.3705 92.9301 56.3072 92.9421 56.2452 92.9421Z" fill="#073D4F"/>
<path d="M22.1585 82.4459C21.3175 80.2331 20.1137 78.6153 18.9314 77.6699C17.747 76.7227 16.5789 76.4416 15.7587 76.8388C14.9384 77.2358 14.4261 78.2013 14.2696 79.5602C14.0068 81.8404 14.7414 84.0698 15.3789 86.2363C16.0414 88.4879 16.6966 90.7415 17.3571 92.9937C18.3807 96.4838 19.3885 99.9902 20.6349 103.415C20.9862 104.383 21.2767 104.978 21.3879 105.175L21.3863 105.196C21.3884 105.193 21.3916 105.189 21.3939 105.186C21.3957 105.19 21.3984 105.194 21.4 105.197L21.4015 105.177C21.5393 105.002 21.9097 104.474 22.3984 103.516C25.6829 97.0612 24.6061 88.9665 22.1585 82.4459Z" fill="#06D6A0"/>
<path d="M16.4961 78.3767C17.4073 80.4042 18.1963 82.4809 18.874 84.5893C19.5508 86.6977 20.1335 88.8359 20.5598 91.0038C21.4643 95.3279 21.8125 99.7662 21.4683 104.165" stroke="black" stroke-width="0.5" stroke-miterlimit="10" stroke-linecap="round" stroke-linejoin="round"/>
<path d="M19.5718 79.2681C19.2228 80.5657 18.8259 81.8517 18.3833 83.1232C17.2584 82.3765 16.107 81.6659 14.9297 80.9965" stroke="black" stroke-width="0.5" stroke-miterlimit="10" stroke-linecap="round" stroke-linejoin="round"/>
<path d="M21.1695 84.115C20.7401 85.302 20.2784 86.4773 19.7777 87.6394C18.7712 86.8678 17.7413 86.1269 16.6895 85.4124" stroke="black" stroke-width="0.5" stroke-miterlimit="10" stroke-linecap="round" stroke-linejoin="round"/>
<path d="M22.379 89.052C21.9045 90.1325 21.369 91.2022 20.808 92.244C19.9379 91.4532 19.034 90.6763 18.1016 89.953" stroke="black" stroke-width="0.5" stroke-miterlimit="10" stroke-linecap="round" stroke-linejoin="round"/>
<path d="M23.1622 94.0696C22.6169 95.0337 22.0285 95.9747 21.4363 96.9131C20.678 96.1242 19.9167 95.3368 19.1191 94.5834" stroke="black" stroke-width="0.5" stroke-miterlimit="10" stroke-linecap="round" stroke-linejoin="round"/>
<path d="M23.462 99.1433C22.875 99.9922 22.2413 100.808 21.5954 101.617C20.9813 100.819 20.3581 100.029 19.6875 99.2732" stroke="black" stroke-width="0.5" stroke-miterlimit="10" stroke-linecap="round" stroke-linejoin="round"/>
<path d="M32.1617 94.4367C33.0941 93.5197 33.6616 92.6204 33.9876 91.7012C34.3074 90.7868 34.3901 89.8667 34.1603 89.0185C33.933 88.1691 32.9915 87.5063 31.641 87.4249C27.8131 87.1662 24.6173 90.8845 23.163 93.8377C20.103 100.053 21.3206 105.018 21.3934 105.181L21.3882 105.195C21.3907 105.194 21.3947 105.191 21.3972 105.19C21.3985 105.193 21.4 105.196 21.4013 105.199L21.4065 105.185C26.1028 100.38 28.9424 97.6609 32.1617 94.4367Z" fill="#06D6A0"/>
<path d="M24.5855 91.5227C24.0117 92.2919 23.5314 93.0892 23.163 93.8375C20.103 100.053 21.3206 105.018 21.3934 105.181" stroke="black" stroke-width="0.5" stroke-miterlimit="10" stroke-linecap="round" stroke-linejoin="round"/>
<path d="M32.9891 89.4817C31.5116 90.1993 30.1946 91.189 29.0203 92.2981C27.851 93.4138 26.7936 94.6417 25.898 95.9691C24.065 98.6012 22.6992 101.508 21.6523 104.499" stroke="black" stroke-width="0.5" stroke-miterlimit="10" stroke-linecap="round" stroke-linejoin="round"/>
<path d="M33.1136 92.1532C32.6051 91.9812 32.0688 91.8607 31.5396 91.7628C31.3522 91.728 29.8613 91.5441 29.8613 91.5441C29.8613 91.5441 30.256 88.6375 30.3988 88.1721" stroke="black" stroke-width="0.5" stroke-miterlimit="10" stroke-linecap="round" stroke-linejoin="round"/>
<path d="M30.5811 93.9637C30.1013 93.9273 27.4203 93.9755 27.4203 93.9755C27.4203 93.9755 27.2482 91.3314 27.2648 90.8154" stroke="black" stroke-width="0.5" stroke-miterlimit="10" stroke-linecap="round" stroke-linejoin="round"/>
<path d="M28.3169 96.2856C27.9019 96.3267 25.3741 96.7225 25.3741 96.7225C25.3741 96.7225 24.8454 94.3198 24.7695 93.8376" stroke="black" stroke-width="0.5" stroke-miterlimit="10" stroke-linecap="round" stroke-linejoin="round"/>
<path d="M26.3706 98.969C25.977 99.0497 23.7571 99.5477 23.7571 99.5477C23.7571 99.5477 22.9661 97.7002 22.8008 97.0898" stroke="black" stroke-width="0.5" stroke-miterlimit="10" stroke-linecap="round" stroke-linejoin="round"/>
<path d="M24.7132 101.894C24.3309 102.024 22.2862 102.775 22.2862 102.775C22.2862 102.775 21.4009 100.839 21.2441 100.471" stroke="black" stroke-width="0.5" stroke-miterlimit="10" stroke-linecap="round" stroke-linejoin="round"/>
<path d="M13.097 88.3288C11.3703 87.2328 9.65647 86.8236 8.32465 86.896C6.98905 86.9673 6.02061 87.5188 5.65899 88.3233C5.29586 89.1297 5.40447 90.1176 5.91704 91.1419C7.10446 93.5104 9.72552 95.0001 11.7521 96.6489C13.7812 98.2996 15.7486 100.013 17.6678 101.779C19.7098 103.679 21.037 104.963 21.3828 105.182L21.3873 105.198C21.3886 105.196 21.3906 105.191 21.3919 105.189C21.3944 105.191 21.3984 105.193 21.4007 105.195L21.3961 105.179C21.437 105.093 21.5078 104.923 21.5914 104.664C23.5228 98.2305 18.4336 91.7064 13.097 88.3288Z" fill="#06D6A0"/>
<path d="M6.92969 88.9211C8.56139 89.7501 10.1218 90.7072 11.5914 91.7762C14.5046 93.8879 17.1906 96.4979 19.0017 99.5517C19.9253 101.076 20.6849 102.698 21.1715 104.399" stroke="black" stroke-width="0.5" stroke-miterlimit="10" stroke-linecap="round" stroke-linejoin="round"/>
<path d="M9.59182 87.627C9.97713 88.7492 10.2977 89.8926 10.5514 91.0484C9.36956 91.2054 8.19499 91.4216 7.03906 91.7041" stroke="black" stroke-width="0.5" stroke-miterlimit="10" stroke-linecap="round" stroke-linejoin="round"/>
<path d="M13.1413 90.0962C13.3648 91.1846 13.5407 92.2833 13.6405 93.3885C12.5193 93.4077 11.3989 93.4951 10.2871 93.6316" stroke="black" stroke-width="0.5" stroke-miterlimit="10" stroke-linecap="round" stroke-linejoin="round"/>
<path d="M16.3503 92.9604C16.4322 93.9956 16.4443 95.0367 16.3997 96.074C15.3577 95.966 14.3083 95.9072 13.2598 95.9173" stroke="black" stroke-width="0.5" stroke-miterlimit="10" stroke-linecap="round" stroke-linejoin="round"/>
<path d="M19.1363 96.2314C19.0629 97.1974 18.9266 98.1608 18.7242 99.1098C17.785 98.8645 16.8282 98.6756 15.8633 98.5496" stroke="black" stroke-width="0.5" stroke-miterlimit="10" stroke-linecap="round" stroke-linejoin="round"/>
<path d="M21.3486 99.9028C21.1293 100.772 20.8456 101.643 20.4888 102.468C19.6849 102.09 18.8339 101.775 17.9766 101.523" stroke="black" stroke-width="0.5" stroke-miterlimit="10" stroke-linecap="round" stroke-linejoin="round"/>
<path d="M21.5928 104.664C23.0753 99.7246 20.42 94.7319 16.6914 91.1509" stroke="black" stroke-width="0.5" stroke-miterlimit="10" stroke-linecap="round" stroke-linejoin="round"/>
<path d="M22.5312 37.7842C22.5312 38.1819 22.8697 38.5042 23.2873 38.5042C23.7048 38.5042 24.0433 38.1819 24.0433 37.7842C24.0433 37.3865 23.7048 37.0642 23.2873 37.0642C22.8697 37.0642 22.5312 37.3865 22.5312 37.7842Z" stroke="#118AB2" stroke-width="0.75" stroke-miterlimit="10" stroke-linecap="round" stroke-linejoin="round"/>
<path d="M10.6523 35.2575C11.4332 35.2575 12.0662 34.6546 12.0662 33.9108C12.0662 33.1671 11.4332 32.5642 10.6523 32.5642C9.87134 32.5642 9.23828 33.1671 9.23828 33.9108C9.23828 34.6546 9.87134 35.2575 10.6523 35.2575Z" fill="#118AB2"/>
<path d="M100.389 33.6535C100.389 34.3973 101.022 35.0002 101.803 35.0002C102.584 35.0002 103.217 34.3973 103.217 33.6535C103.217 32.9098 102.584 32.3069 101.803 32.3069C101.022 32.3066 100.389 32.9098 100.389 33.6535Z" stroke="#118AB2" stroke-width="0.75" stroke-miterlimit="10" stroke-linecap="round" stroke-linejoin="round"/>
<path d="M19.3125 21.6975C19.3125 22.4412 19.9455 23.0441 20.7265 23.0441C21.5074 23.0441 22.1404 22.4412 22.1404 21.6975C22.1404 20.9537 21.5074 20.3508 20.7265 20.3508C19.9455 20.3508 19.3125 20.9537 19.3125 21.6975Z" stroke="#118AB2" stroke-width="0.75" stroke-miterlimit="10" stroke-linecap="round" stroke-linejoin="round"/>
<path d="M11.6953 48.3308C11.6953 48.7285 12.0337 49.0508 12.4513 49.0508C12.8689 49.0508 13.2073 48.7285 13.2073 48.3308C13.2073 47.9332 12.8689 47.6108 12.4513 47.6108C12.0337 47.6108 11.6953 47.9332 11.6953 48.3308Z" fill="#118AB2"/>
<path d="M111.797 48.7758C111.797 49.5196 112.43 50.1225 113.211 50.1225C113.992 50.1225 114.625 49.5196 114.625 48.7758C114.625 48.0321 113.992 47.4292 113.211 47.4292C112.43 47.4292 111.797 48.0321 111.797 48.7758Z" stroke="#118AB2" stroke-width="0.75" stroke-miterlimit="10" stroke-linecap="round" stroke-linejoin="round"/>
<path d="M106.115 21.6975C106.115 22.4412 106.748 23.0441 107.529 23.0441C108.31 23.0441 108.943 22.4412 108.943 21.6975C108.943 20.9537 108.31 20.3508 107.529 20.3508C106.748 20.3508 106.115 20.9537 106.115 21.6975Z" fill="#118AB2"/>
<path d="M115.938 37.5569C116.355 37.5569 116.694 37.2346 116.694 36.8369C116.694 36.4393 116.355 36.1169 115.938 36.1169C115.52 36.1169 115.182 36.4393 115.182 36.8369C115.182 37.2346 115.52 37.5569 115.938 37.5569Z" fill="#118AB2"/>
<path d="M57.6327 61.1158C59.5234 61.8732 61.4019 61.9695 63.2677 61.4016C63.6089 61.2963 63.8009 61.2147 63.8009 61.2147C63.8009 61.2147 63.693 61.0356 63.4922 60.7541C61.6087 58.1739 58.9874 56.4375 55.6522 56.413C54.5243 56.4079 53.707 56.5438 53.707 56.5438C53.707 56.5438 53.9396 57.331 54.5575 58.3032C55.1714 59.2752 56.1829 60.4311 57.6327 61.1158Z" fill="#06D6A0"/>
<path d="M56.8652 56.8484C57.0275 57.4222 57.2029 57.9932 57.3871 58.5675" stroke="black" stroke-width="0.5" stroke-miterlimit="10" stroke-linecap="round" stroke-linejoin="round"/>
<path d="M55.625 59.1081C56.2175 58.9382 56.8066 58.7555 57.388 58.5676" stroke="black" stroke-width="0.5" stroke-miterlimit="10" stroke-linecap="round" stroke-linejoin="round"/>
<path d="M58.5957 57.7239C58.7809 58.2874 58.9735 58.8593 59.1816 59.4238" stroke="black" stroke-width="0.5" stroke-miterlimit="10" stroke-linecap="round" stroke-linejoin="round"/>
<path d="M57.4316 60.0272C58.0228 59.8323 58.6039 59.6365 59.1815 59.4238" stroke="black" stroke-width="0.5" stroke-miterlimit="10" stroke-linecap="round" stroke-linejoin="round"/>
<path d="M60.3574 58.5354C60.5636 59.0922 60.7808 59.6533 61.0129 60.2123" stroke="black" stroke-width="0.5" stroke-miterlimit="10" stroke-linecap="round" stroke-linejoin="round"/>
<path d="M59.2812 60.8837C59.8677 60.6677 60.4445 60.4462 61.0132 60.2124" stroke="black" stroke-width="0.5" stroke-miterlimit="10" stroke-linecap="round" stroke-linejoin="round"/>
<path d="M54.541 57.0386C56.1735 57.9782 57.8604 58.8376 59.5944 59.6092C61.3319 60.3861 63.1294 61.0535 64.9829 61.5583" stroke="black" stroke-width="0.5" stroke-miterlimit="10" stroke-linecap="round" stroke-linejoin="round"/>
<path d="M28.4975 56.7527C30.7718 57.6664 32.4877 60.0945 32.6021 62.583C32.6079 62.6886 32.6044 62.7484 32.6044 62.7484C32.6044 62.7484 32.5484 62.7347 32.4456 62.7097C28.6099 61.7241 25.344 60.4564 21.9692 58.4229C21.6462 58.2335 21.4531 58.1205 21.4531 58.1205C21.4531 58.1205 21.6033 57.9462 21.9153 57.699C23.6795 56.3034 26.4435 55.9302 28.4975 56.7527Z" fill="#06D6A0"/>
<path d="M24.5449 59.5135C25.0441 59.1242 25.5897 58.7633 26.1786 58.4438" stroke="black" stroke-width="0.5" stroke-miterlimit="10" stroke-linecap="round" stroke-linejoin="round"/>
<path d="M24.959 56.7917C25.4201 57.3233 25.8284 57.8758 26.1792 58.4439" stroke="black" stroke-width="0.5" stroke-miterlimit="10" stroke-linecap="round" stroke-linejoin="round"/>
<path d="M26.4941 59.9806C27.0526 59.6801 27.6506 59.4281 28.2886 59.2227" stroke="black" stroke-width="0.5" stroke-miterlimit="10" stroke-linecap="round" stroke-linejoin="round"/>
<path d="M27.375 57.3647C27.7419 57.9698 28.0461 58.5969 28.2882 59.2228" stroke="black" stroke-width="0.5" stroke-miterlimit="10" stroke-linecap="round" stroke-linejoin="round"/>
<path d="M28.3164 60.7958C28.9192 60.6047 29.5532 60.4732 30.2208 60.3918" stroke="black" stroke-width="0.5" stroke-miterlimit="10" stroke-linecap="round" stroke-linejoin="round"/>
<path d="M29.666 58.384C29.9175 59.0522 30.0979 59.7307 30.2204 60.3921" stroke="black" stroke-width="0.5" stroke-miterlimit="10" stroke-linecap="round" stroke-linejoin="round"/>
<path d="M22.5508 58.0253C24.6875 57.9639 26.8486 58.4372 28.7467 59.4545C30.6589 60.4673 32.2462 62.0499 33.4044 63.8935" stroke="black" stroke-width="0.5" stroke-miterlimit="10" stroke-linecap="round" stroke-linejoin="round"/>
<path d="M92.4878 83.09C94.4098 84.2389 95.8667 85.994 97.4396 87.5403C97.7592 87.8605 97.9482 88.0697 97.9482 88.0697C97.9482 88.0697 97.7181 88.2049 97.2804 88.3909C91.9952 90.5857 86.0959 86.7557 85.3537 81.4172C85.2902 80.9701 85.295 80.7058 85.295 80.7058C85.295 80.7058 86.3736 80.8889 87.7885 81.2525C89.2131 81.6296 90.9585 82.159 92.4878 83.09Z" fill="#06D6A0"/>
<path d="M87.0156 84.6004C87.8384 84.5827 88.668 84.5073 89.4583 84.4204" stroke="black" stroke-width="0.5" stroke-miterlimit="10" stroke-linecap="round" stroke-linejoin="round"/>
<path d="M89.1914 82.1411C89.2365 82.899 89.3373 83.643 89.459 84.4204" stroke="black" stroke-width="0.5" stroke-miterlimit="10" stroke-linecap="round" stroke-linejoin="round"/>
<path d="M89.2734 86.2785C90.0879 86.1751 90.8958 86.0328 91.6969 85.8521" stroke="black" stroke-width="0.5" stroke-miterlimit="10" stroke-linecap="round" stroke-linejoin="round"/>
<path d="M91.1816 83.614C91.3142 84.3679 91.4863 85.1138 91.6977 85.8523" stroke="black" stroke-width="0.5" stroke-miterlimit="10" stroke-linecap="round" stroke-linejoin="round"/>
<path d="M91.7422 87.7299C92.5441 87.5367 93.3323 87.3001 94.1067 87.02" stroke="black" stroke-width="0.5" stroke-miterlimit="10" stroke-linecap="round" stroke-linejoin="round"/>
<path d="M93.3086 84.8591C93.5301 85.5935 93.796 86.314 94.1062 87.0201" stroke="black" stroke-width="0.5" stroke-miterlimit="10" stroke-linecap="round" stroke-linejoin="round"/>
<path d="M86.1797 81.6399C87.0655 82.5214 88.0188 83.3429 89.028 84.0975C91.7632 86.1332 95.0967 87.8518 98.6323 88.1437L99.6022 88.2137" stroke="black" stroke-width="0.5" stroke-miterlimit="10" stroke-linecap="round" stroke-linejoin="round"/>
<path d="M95.5713 61.1456C96.7542 61.7261 98.1137 61.897 99.3944 62.1869C99.6575 62.2438 99.8233 62.2714 99.8233 62.2714C99.8233 62.2714 99.8261 62.12 99.7943 61.8529C99.3805 58.6289 95.5819 56.9141 92.5226 58.1816C92.2658 58.2872 92.127 58.3702 92.127 58.3702C92.127 58.3702 92.5536 58.8418 93.1775 59.4217C93.8101 60.0003 94.6185 60.6872 95.5713 61.1456Z" fill="#06D6A0"/>
<path d="M94.7168 58.0225C94.9567 58.43 95.1676 58.8579 95.3604 59.2695" stroke="black" stroke-width="0.5" stroke-miterlimit="10" stroke-linecap="round" stroke-linejoin="round"/>
<path d="M94.0742 59.8335C94.489 59.6247 94.9131 59.4471 95.3612 59.2695" stroke="black" stroke-width="0.5" stroke-miterlimit="10" stroke-linecap="round" stroke-linejoin="round"/>
<path d="M96.2871 58.6135C96.4776 59.0419 96.6454 59.4785 96.7906 59.9227" stroke="black" stroke-width="0.5" stroke-miterlimit="10" stroke-linecap="round" stroke-linejoin="round"/>
<path d="M95.4531 60.3524C95.8914 60.1876 96.3371 60.0443 96.7905 59.9224" stroke="black" stroke-width="0.5" stroke-miterlimit="10" stroke-linecap="round" stroke-linejoin="round"/>
<path d="M97.7949 59.3733C97.9328 59.8214 98.0437 60.2754 98.1271 60.7355" stroke="black" stroke-width="0.5" stroke-miterlimit="10" stroke-linecap="round" stroke-linejoin="round"/>
<path d="M96.75 61.0056C97.2036 60.8899 97.663 60.7999 98.1277 60.7358" stroke="black" stroke-width="0.5" stroke-miterlimit="10" stroke-linecap="round" stroke-linejoin="round"/>
<path d="M92.8926 58.5176C93.6299 58.6815 94.3547 58.8963 95.0598 59.1584C96.9596 59.8693 98.862 60.9625 100.064 62.5777L100.388 63.0221" stroke="black" stroke-width="0.5" stroke-miterlimit="10" stroke-linecap="round" stroke-linejoin="round"/>
</g>
<defs>
<clipPath id="clip0_572_1000">
<rect width="126" height="120" rx="20" fill="white"/>
</clipPath>
</defs>
</svg>
